<mxfile host="app.diagrams.net" agent="Mozilla/5.0 (Windows NT 10.0; Win64; x64) AppleWebKit/537.36 (KHTML, like Gecko) Chrome/128.0.0.0 Safari/537.36" version="24.7.10">
  <diagram name="Page-1" id="fs69FRUNg30xIKeMuvfs">
    <mxGraphModel dx="1909" dy="964" grid="1" gridSize="10" guides="1" tooltips="1" connect="1" arrows="1" fold="1" page="1" pageScale="1" pageWidth="827" pageHeight="1169" math="0" shadow="0">
      <root>
        <mxCell id="0" />
        <mxCell id="1" parent="0" />
        <mxCell id="TTRusq3qH8P9zSdaD9Ae-1" value="" style="rounded=0;whiteSpace=wrap;html=1;strokeColor=none;" vertex="1" parent="1">
          <mxGeometry x="467.5" width="680" height="860" as="geometry" />
        </mxCell>
        <mxCell id="2UlCi5NOUDfDHAdmGwE_-32" style="edgeStyle=orthogonalEdgeStyle;rounded=0;orthogonalLoop=1;jettySize=auto;html=1;exitX=0.5;exitY=1;exitDx=0;exitDy=0;exitPerimeter=0;entryX=0.5;entryY=0;entryDx=0;entryDy=0;fontFamily=Noto Sans;fontSource=https%3A%2F%2Ffonts.googleapis.com%2Fcss%3Ffamily%3DNoto%2BSans;" parent="1" source="2UlCi5NOUDfDHAdmGwE_-1" target="2UlCi5NOUDfDHAdmGwE_-2" edge="1">
          <mxGeometry relative="1" as="geometry" />
        </mxCell>
        <mxCell id="2UlCi5NOUDfDHAdmGwE_-1" value="START" style="strokeWidth=0.5;html=1;shape=mxgraph.flowchart.start_1;whiteSpace=wrap;fontFamily=Noto Sans;fillColor=#f8cecc;strokeColor=#b85450;fontSource=https%3A%2F%2Ffonts.googleapis.com%2Fcss%3Ffamily%3DNoto%2BSans;fontStyle=1" parent="1" vertex="1">
          <mxGeometry x="545" y="50" width="100" height="40" as="geometry" />
        </mxCell>
        <mxCell id="2UlCi5NOUDfDHAdmGwE_-33" style="edgeStyle=orthogonalEdgeStyle;rounded=0;orthogonalLoop=1;jettySize=auto;html=1;exitX=0.5;exitY=1;exitDx=0;exitDy=0;entryX=0.5;entryY=0;entryDx=0;entryDy=0;fontFamily=Noto Sans;fontSource=https%3A%2F%2Ffonts.googleapis.com%2Fcss%3Ffamily%3DNoto%2BSans;" parent="1" source="2UlCi5NOUDfDHAdmGwE_-2" target="2UlCi5NOUDfDHAdmGwE_-17" edge="1">
          <mxGeometry relative="1" as="geometry" />
        </mxCell>
        <mxCell id="2UlCi5NOUDfDHAdmGwE_-2" value="Initialize &lt;b&gt;Arr[x]&lt;/b&gt; &lt;span class=&quot;hljs-keyword&quot;&gt;with&lt;/span&gt;&amp;nbsp;&lt;div&gt;integers&amp;nbsp;&lt;b&gt;&lt;span style=&quot;background-color: initial;&quot;&gt;(&lt;/span&gt;&lt;span style=&quot;background-color: initial;&quot; class=&quot;hljs-number&quot;&gt;5&lt;/span&gt;&lt;span style=&quot;background-color: initial;&quot;&gt; &lt;/span&gt;&lt;span style=&quot;background-color: initial;&quot; class=&quot;hljs-operator&quot;&gt;&amp;lt;&lt;/span&gt;&lt;span style=&quot;background-color: initial;&quot;&gt; x &lt;/span&gt;&lt;span style=&quot;background-color: initial;&quot; class=&quot;hljs-operator&quot;&gt;&amp;lt;&lt;/span&gt;&lt;span style=&quot;background-color: initial;&quot;&gt; &lt;/span&gt;&lt;span style=&quot;background-color: initial;&quot; class=&quot;hljs-number&quot;&gt;11&lt;/span&gt;&lt;/b&gt;&lt;span style=&quot;background-color: initial;&quot;&gt;&lt;b&gt;)&lt;/b&gt;&amp;nbsp;&lt;/span&gt;&lt;/div&gt;" style="rounded=1;whiteSpace=wrap;html=1;absoluteArcSize=1;arcSize=6;strokeWidth=0.5;fontFamily=Noto Sans;fillColor=#fff2cc;strokeColor=#d6b656;fontSource=https%3A%2F%2Ffonts.googleapis.com%2Fcss%3Ffamily%3DNoto%2BSans;" parent="1" vertex="1">
          <mxGeometry x="510" y="110" width="170" height="40" as="geometry" />
        </mxCell>
        <mxCell id="2UlCi5NOUDfDHAdmGwE_-45" style="edgeStyle=orthogonalEdgeStyle;rounded=0;orthogonalLoop=1;jettySize=auto;html=1;exitX=0.5;exitY=1;exitDx=0;exitDy=0;exitPerimeter=0;entryX=0.5;entryY=0;entryDx=0;entryDy=0;fontFamily=Noto Sans;fontSource=https%3A%2F%2Ffonts.googleapis.com%2Fcss%3Ffamily%3DNoto%2BSans;" parent="1" source="2UlCi5NOUDfDHAdmGwE_-11" target="2UlCi5NOUDfDHAdmGwE_-25" edge="1">
          <mxGeometry relative="1" as="geometry" />
        </mxCell>
        <mxCell id="2UlCi5NOUDfDHAdmGwE_-46" value="YES" style="edgeLabel;html=1;align=center;verticalAlign=middle;resizable=0;points=[];fontFamily=Noto Sans;fontSource=https%3A%2F%2Ffonts.googleapis.com%2Fcss%3Ffamily%3DNoto%2BSans;" parent="2UlCi5NOUDfDHAdmGwE_-45" vertex="1" connectable="0">
          <mxGeometry x="-0.0941" y="1" relative="1" as="geometry">
            <mxPoint as="offset" />
          </mxGeometry>
        </mxCell>
        <mxCell id="2UlCi5NOUDfDHAdmGwE_-11" value="&lt;span data-lucid-content=&quot;{&amp;quot;t&amp;quot;:&amp;quot;Check if L - avg_Arr[x] is equal to zero&amp;quot;,&amp;quot;m&amp;quot;:[{&amp;quot;s&amp;quot;:0,&amp;quot;n&amp;quot;:&amp;quot;c&amp;quot;,&amp;quot;v&amp;quot;:&amp;quot;#3a414aff&amp;quot;,&amp;quot;e&amp;quot;:40}]}&quot; data-lucid-type=&quot;application/vnd.lucid.text&quot;&gt;&lt;span style=&quot;color:#3a414a;&quot;&gt;if &lt;b&gt;L - avg_Arr[x]&lt;/b&gt;&lt;/span&gt;&lt;/span&gt;&lt;div&gt;&lt;span data-lucid-content=&quot;{&amp;quot;t&amp;quot;:&amp;quot;Check if L - avg_Arr[x] is equal to zero&amp;quot;,&amp;quot;m&amp;quot;:[{&amp;quot;s&amp;quot;:0,&amp;quot;n&amp;quot;:&amp;quot;c&amp;quot;,&amp;quot;v&amp;quot;:&amp;quot;#3a414aff&amp;quot;,&amp;quot;e&amp;quot;:40}]}&quot; data-lucid-type=&quot;application/vnd.lucid.text&quot;&gt;&lt;span style=&quot;color:#3a414a;&quot;&gt;&amp;nbsp;is equal to &lt;b&gt;0&lt;/b&gt;&lt;/span&gt;&lt;/span&gt;&lt;/div&gt;" style="strokeWidth=0.5;html=1;shape=mxgraph.flowchart.decision;whiteSpace=wrap;fillColor=#b0e3e6;strokeColor=#0e8088;fontFamily=Noto Sans;fontSource=https%3A%2F%2Ffonts.googleapis.com%2Fcss%3Ffamily%3DNoto%2BSans;" parent="1" vertex="1">
          <mxGeometry x="537.5" y="470" width="115" height="115" as="geometry" />
        </mxCell>
        <mxCell id="2UlCi5NOUDfDHAdmGwE_-34" style="edgeStyle=orthogonalEdgeStyle;rounded=0;orthogonalLoop=1;jettySize=auto;html=1;exitX=0.5;exitY=1;exitDx=0;exitDy=0;entryX=0.5;entryY=0;entryDx=0;entryDy=0;fontFamily=Noto Sans;fontSource=https%3A%2F%2Ffonts.googleapis.com%2Fcss%3Ffamily%3DNoto%2BSans;" parent="1" source="2UlCi5NOUDfDHAdmGwE_-17" target="2UlCi5NOUDfDHAdmGwE_-18" edge="1">
          <mxGeometry relative="1" as="geometry" />
        </mxCell>
        <mxCell id="2UlCi5NOUDfDHAdmGwE_-17" value="Store &lt;b&gt;Arr[x] &lt;/b&gt;starting &lt;span class=&quot;hljs-keyword&quot;&gt;from&lt;/span&gt;&amp;nbsp;&lt;div&gt;memory address&lt;b&gt; &lt;span class=&quot;hljs-number&quot;&gt;0x75&lt;/span&gt;&lt;/b&gt;&lt;/div&gt;" style="rounded=1;whiteSpace=wrap;html=1;absoluteArcSize=1;arcSize=6;strokeWidth=0.5;fontFamily=Noto Sans;fillColor=#fff2cc;strokeColor=#d6b656;fontSource=https%3A%2F%2Ffonts.googleapis.com%2Fcss%3Ffamily%3DNoto%2BSans;" parent="1" vertex="1">
          <mxGeometry x="510" y="170" width="170" height="40" as="geometry" />
        </mxCell>
        <mxCell id="2UlCi5NOUDfDHAdmGwE_-35" style="edgeStyle=orthogonalEdgeStyle;rounded=0;orthogonalLoop=1;jettySize=auto;html=1;exitX=0.5;exitY=1;exitDx=0;exitDy=0;entryX=0.5;entryY=0;entryDx=0;entryDy=0;fontFamily=Noto Sans;fontSource=https%3A%2F%2Ffonts.googleapis.com%2Fcss%3Ffamily%3DNoto%2BSans;" parent="1" source="2UlCi5NOUDfDHAdmGwE_-18" target="2UlCi5NOUDfDHAdmGwE_-19" edge="1">
          <mxGeometry relative="1" as="geometry" />
        </mxCell>
        <mxCell id="2UlCi5NOUDfDHAdmGwE_-18" value="Loop through &lt;span class=&quot;hljs-keyword&quot;&gt;each&lt;/span&gt; element &lt;span class=&quot;hljs-keyword&quot;&gt;in&lt;/span&gt;&amp;nbsp;&lt;b style=&quot;background-color: initial;&quot;&gt;Arr[x] &lt;/b&gt;&lt;span style=&quot;background-color: initial;&quot; class=&quot;hljs-keyword&quot;&gt;to&lt;/span&gt;&lt;span style=&quot;background-color: initial;&quot;&gt; &lt;/span&gt;&lt;span style=&quot;background-color: initial;&quot; class=&quot;hljs-keyword&quot;&gt;get&lt;/span&gt;&lt;span style=&quot;background-color: initial;&quot;&gt; the SUM&amp;nbsp;&lt;/span&gt;" style="rounded=1;whiteSpace=wrap;html=1;absoluteArcSize=1;arcSize=6;strokeWidth=0.5;fontFamily=Noto Sans;fillColor=#fff2cc;strokeColor=#d6b656;fontSource=https%3A%2F%2Ffonts.googleapis.com%2Fcss%3Ffamily%3DNoto%2BSans;" parent="1" vertex="1">
          <mxGeometry x="510" y="230" width="170" height="40" as="geometry" />
        </mxCell>
        <mxCell id="2UlCi5NOUDfDHAdmGwE_-36" style="edgeStyle=orthogonalEdgeStyle;rounded=0;orthogonalLoop=1;jettySize=auto;html=1;exitX=0.5;exitY=1;exitDx=0;exitDy=0;entryX=0.5;entryY=0;entryDx=0;entryDy=0;fontFamily=Noto Sans;fontSource=https%3A%2F%2Ffonts.googleapis.com%2Fcss%3Ffamily%3DNoto%2BSans;" parent="1" source="2UlCi5NOUDfDHAdmGwE_-19" target="2UlCi5NOUDfDHAdmGwE_-20" edge="1">
          <mxGeometry relative="1" as="geometry" />
        </mxCell>
        <mxCell id="2UlCi5NOUDfDHAdmGwE_-19" value="&lt;div&gt;Store &lt;b&gt;SUM&lt;/b&gt;&amp;nbsp;&lt;span class=&quot;hljs-keyword&quot;&gt;in&lt;/span&gt;&amp;nbsp;&lt;/div&gt;&lt;div&gt;memory address&lt;b&gt; &lt;span class=&quot;hljs-number&quot;&gt;0x87&lt;/span&gt;&lt;/b&gt;&lt;br&gt;&lt;/div&gt;" style="rounded=1;whiteSpace=wrap;html=1;absoluteArcSize=1;arcSize=6;strokeWidth=0.5;fontFamily=Noto Sans;fillColor=#fff2cc;strokeColor=#d6b656;fontSource=https%3A%2F%2Ffonts.googleapis.com%2Fcss%3Ffamily%3DNoto%2BSans;" parent="1" vertex="1">
          <mxGeometry x="510" y="290" width="170" height="40" as="geometry" />
        </mxCell>
        <mxCell id="2UlCi5NOUDfDHAdmGwE_-37" style="edgeStyle=orthogonalEdgeStyle;rounded=0;orthogonalLoop=1;jettySize=auto;html=1;exitX=0.5;exitY=1;exitDx=0;exitDy=0;entryX=0.5;entryY=0;entryDx=0;entryDy=0;fontFamily=Noto Sans;fontSource=https%3A%2F%2Ffonts.googleapis.com%2Fcss%3Ffamily%3DNoto%2BSans;" parent="1" source="2UlCi5NOUDfDHAdmGwE_-20" target="2UlCi5NOUDfDHAdmGwE_-21" edge="1">
          <mxGeometry relative="1" as="geometry" />
        </mxCell>
        <mxCell id="2UlCi5NOUDfDHAdmGwE_-20" value="&lt;div&gt;Calculate&lt;b&gt; avg_Arr[x]&amp;nbsp;&lt;/b&gt;&lt;br&gt;&lt;/div&gt;" style="rounded=1;whiteSpace=wrap;html=1;absoluteArcSize=1;arcSize=6;strokeWidth=0.5;fontFamily=Noto Sans;fillColor=#fff2cc;strokeColor=#d6b656;fontSource=https%3A%2F%2Ffonts.googleapis.com%2Fcss%3Ffamily%3DNoto%2BSans;" parent="1" vertex="1">
          <mxGeometry x="510" y="350" width="170" height="40" as="geometry" />
        </mxCell>
        <mxCell id="2UlCi5NOUDfDHAdmGwE_-21" value="&lt;div&gt;Store &lt;b&gt;avg_Arr[x]&lt;/b&gt; &lt;span class=&quot;hljs-keyword&quot;&gt;in&lt;/span&gt;&amp;nbsp;&lt;/div&gt;&lt;div&gt;memory&amp;nbsp;&lt;span style=&quot;background-color: initial;&quot;&gt;address &lt;/span&gt;&lt;span style=&quot;background-color: initial;&quot; class=&quot;hljs-number&quot;&gt;&lt;b&gt;0x88&lt;/b&gt;&lt;/span&gt;&lt;/div&gt;" style="rounded=1;whiteSpace=wrap;html=1;absoluteArcSize=1;arcSize=6;strokeWidth=0.5;fontFamily=Noto Sans;fillColor=#fff2cc;strokeColor=#d6b656;fontSource=https%3A%2F%2Ffonts.googleapis.com%2Fcss%3Ffamily%3DNoto%2BSans;" parent="1" vertex="1">
          <mxGeometry x="510" y="410" width="170" height="40" as="geometry" />
        </mxCell>
        <mxCell id="2UlCi5NOUDfDHAdmGwE_-43" style="edgeStyle=orthogonalEdgeStyle;rounded=0;orthogonalLoop=1;jettySize=auto;html=1;exitX=0.5;exitY=1;exitDx=0;exitDy=0;exitPerimeter=0;entryX=0.5;entryY=0;entryDx=0;entryDy=0;fontFamily=Noto Sans;fontSource=https%3A%2F%2Ffonts.googleapis.com%2Fcss%3Ffamily%3DNoto%2BSans;" parent="1" source="2UlCi5NOUDfDHAdmGwE_-23" target="2UlCi5NOUDfDHAdmGwE_-27" edge="1">
          <mxGeometry relative="1" as="geometry" />
        </mxCell>
        <mxCell id="2UlCi5NOUDfDHAdmGwE_-47" value="YES" style="edgeLabel;html=1;align=center;verticalAlign=middle;resizable=0;points=[];fontFamily=Noto Sans;fontSource=https%3A%2F%2Ffonts.googleapis.com%2Fcss%3Ffamily%3DNoto%2BSans;" parent="2UlCi5NOUDfDHAdmGwE_-43" vertex="1" connectable="0">
          <mxGeometry x="-0.0941" y="4" relative="1" as="geometry">
            <mxPoint x="-4" as="offset" />
          </mxGeometry>
        </mxCell>
        <mxCell id="2UlCi5NOUDfDHAdmGwE_-23" value="&lt;span data-lucid-content=&quot;{&amp;quot;t&amp;quot;:&amp;quot;Check if L &lt; avg_Arr[x]&amp;quot;,&amp;quot;m&amp;quot;:[{&amp;quot;s&amp;quot;:0,&amp;quot;n&amp;quot;:&amp;quot;c&amp;quot;,&amp;quot;v&amp;quot;:&amp;quot;#3a414aff&amp;quot;,&amp;quot;e&amp;quot;:23}]}&quot; data-lucid-type=&quot;application/vnd.lucid.text&quot;&gt;&lt;span style=&quot;color:#3a414a;&quot;&gt;&amp;nbsp;if &lt;b&gt;L &amp;lt; avg_Arr[x]&lt;/b&gt;&lt;/span&gt;&lt;/span&gt;" style="strokeWidth=0.5;html=1;shape=mxgraph.flowchart.decision;whiteSpace=wrap;fillColor=#b0e3e6;strokeColor=#0e8088;fontFamily=Noto Sans;fontSource=https%3A%2F%2Ffonts.googleapis.com%2Fcss%3Ffamily%3DNoto%2BSans;" parent="1" vertex="1">
          <mxGeometry x="750" y="470" width="115" height="115" as="geometry" />
        </mxCell>
        <mxCell id="2UlCi5NOUDfDHAdmGwE_-44" style="edgeStyle=orthogonalEdgeStyle;rounded=0;orthogonalLoop=1;jettySize=auto;html=1;exitX=0.5;exitY=1;exitDx=0;exitDy=0;exitPerimeter=0;entryX=0.5;entryY=0;entryDx=0;entryDy=0;fontFamily=Noto Sans;fontSource=https%3A%2F%2Ffonts.googleapis.com%2Fcss%3Ffamily%3DNoto%2BSans;" parent="1" source="2UlCi5NOUDfDHAdmGwE_-24" target="2UlCi5NOUDfDHAdmGwE_-28" edge="1">
          <mxGeometry relative="1" as="geometry" />
        </mxCell>
        <mxCell id="2UlCi5NOUDfDHAdmGwE_-48" value="YES" style="edgeLabel;html=1;align=center;verticalAlign=middle;resizable=0;points=[];fontFamily=Noto Sans;fontSource=https%3A%2F%2Ffonts.googleapis.com%2Fcss%3Ffamily%3DNoto%2BSans;" parent="2UlCi5NOUDfDHAdmGwE_-44" vertex="1" connectable="0">
          <mxGeometry x="-0.2118" relative="1" as="geometry">
            <mxPoint as="offset" />
          </mxGeometry>
        </mxCell>
        <mxCell id="2UlCi5NOUDfDHAdmGwE_-24" value="&lt;span data-lucid-content=&quot;{&amp;quot;t&amp;quot;:&amp;quot;Check if L &gt; avg_Arr[x]&amp;quot;,&amp;quot;m&amp;quot;:[{&amp;quot;s&amp;quot;:0,&amp;quot;n&amp;quot;:&amp;quot;c&amp;quot;,&amp;quot;v&amp;quot;:&amp;quot;#3a414aff&amp;quot;,&amp;quot;e&amp;quot;:23}]}&quot; data-lucid-type=&quot;application/vnd.lucid.text&quot;&gt;&lt;span style=&quot;color:#3a414a;&quot;&gt;if &lt;b&gt;L &amp;gt; avg_Arr[x]&lt;/b&gt;&lt;/span&gt;&lt;/span&gt;" style="strokeWidth=0.5;html=1;shape=mxgraph.flowchart.decision;whiteSpace=wrap;fillColor=#b0e3e6;strokeColor=#0e8088;fontFamily=Noto Sans;fontSource=https%3A%2F%2Ffonts.googleapis.com%2Fcss%3Ffamily%3DNoto%2BSans;" parent="1" vertex="1">
          <mxGeometry x="960" y="470" width="115" height="115" as="geometry" />
        </mxCell>
        <mxCell id="2UlCi5NOUDfDHAdmGwE_-51" style="edgeStyle=orthogonalEdgeStyle;rounded=0;orthogonalLoop=1;jettySize=auto;html=1;exitX=0.5;exitY=1;exitDx=0;exitDy=0;entryX=0.5;entryY=0;entryDx=0;entryDy=0;fontFamily=Noto Sans;fontSource=https%3A%2F%2Ffonts.googleapis.com%2Fcss%3Ffamily%3DNoto%2BSans;" parent="1" source="2UlCi5NOUDfDHAdmGwE_-25" target="2UlCi5NOUDfDHAdmGwE_-26" edge="1">
          <mxGeometry relative="1" as="geometry" />
        </mxCell>
        <mxCell id="2UlCi5NOUDfDHAdmGwE_-25" value="Load accumulator&lt;div&gt;&amp;nbsp;&lt;span class=&quot;hljs-keyword&quot;&gt;with&lt;/span&gt; &lt;span class=&quot;hljs-keyword&quot;&gt;value&lt;/span&gt; &lt;b&gt;L&lt;/b&gt;&lt;br&gt;&lt;/div&gt;" style="rounded=1;whiteSpace=wrap;html=1;absoluteArcSize=1;arcSize=6;strokeWidth=0.5;fontFamily=Noto Sans;fillColor=#dae8fc;strokeColor=#6c8ebf;fontSource=https%3A%2F%2Ffonts.googleapis.com%2Fcss%3Ffamily%3DNoto%2BSans;" parent="1" vertex="1">
          <mxGeometry x="511.4" y="625" width="167.19" height="40" as="geometry" />
        </mxCell>
        <mxCell id="2UlCi5NOUDfDHAdmGwE_-26" value="&lt;div&gt;&lt;span data-lucid-content=&quot;{&amp;quot;t&amp;quot;:&amp;quot;Store L in memory location 0x90&amp;quot;,&amp;quot;m&amp;quot;:[]}&quot; data-lucid-type=&quot;application/vnd.lucid.text&quot;&gt;Store &lt;b&gt;L &lt;/b&gt;in&amp;nbsp;&lt;/span&gt;&lt;/div&gt;&lt;div&gt;&lt;span data-lucid-content=&quot;{&amp;quot;t&amp;quot;:&amp;quot;Store L in memory location 0x90&amp;quot;,&amp;quot;m&amp;quot;:[]}&quot; data-lucid-type=&quot;application/vnd.lucid.text&quot;&gt;memory location &lt;b&gt;0x90&lt;/b&gt;&lt;/span&gt;&lt;br&gt;&lt;/div&gt;" style="rounded=1;whiteSpace=wrap;html=1;absoluteArcSize=1;arcSize=6;strokeWidth=0.5;fontFamily=Noto Sans;fillColor=#dae8fc;strokeColor=#6c8ebf;fontSource=https%3A%2F%2Ffonts.googleapis.com%2Fcss%3Ffamily%3DNoto%2BSans;" parent="1" vertex="1">
          <mxGeometry x="511.4" y="695" width="167.19" height="40" as="geometry" />
        </mxCell>
        <mxCell id="2UlCi5NOUDfDHAdmGwE_-50" style="edgeStyle=orthogonalEdgeStyle;rounded=0;orthogonalLoop=1;jettySize=auto;html=1;exitX=0.5;exitY=1;exitDx=0;exitDy=0;entryX=0.5;entryY=0;entryDx=0;entryDy=0;fontFamily=Noto Sans;fontSource=https%3A%2F%2Ffonts.googleapis.com%2Fcss%3Ffamily%3DNoto%2BSans;" parent="1" source="2UlCi5NOUDfDHAdmGwE_-27" target="2UlCi5NOUDfDHAdmGwE_-29" edge="1">
          <mxGeometry relative="1" as="geometry" />
        </mxCell>
        <mxCell id="2UlCi5NOUDfDHAdmGwE_-27" value="Load accumulator&lt;div&gt;&amp;nbsp;&lt;span class=&quot;hljs-keyword&quot;&gt;with&lt;/span&gt; &lt;span class=&quot;hljs-keyword&quot;&gt;value&lt;/span&gt; &lt;b&gt;M&lt;/b&gt;&lt;br&gt;&lt;/div&gt;" style="rounded=1;whiteSpace=wrap;html=1;absoluteArcSize=1;arcSize=6;strokeWidth=0.5;fontFamily=Noto Sans;fillColor=#dae8fc;strokeColor=#6c8ebf;fontSource=https%3A%2F%2Ffonts.googleapis.com%2Fcss%3Ffamily%3DNoto%2BSans;" parent="1" vertex="1">
          <mxGeometry x="723.9" y="625" width="167.19" height="40" as="geometry" />
        </mxCell>
        <mxCell id="2UlCi5NOUDfDHAdmGwE_-49" style="edgeStyle=orthogonalEdgeStyle;rounded=0;orthogonalLoop=1;jettySize=auto;html=1;exitX=0.5;exitY=1;exitDx=0;exitDy=0;entryX=0.5;entryY=0;entryDx=0;entryDy=0;fontFamily=Noto Sans;fontSource=https%3A%2F%2Ffonts.googleapis.com%2Fcss%3Ffamily%3DNoto%2BSans;" parent="1" source="2UlCi5NOUDfDHAdmGwE_-28" target="2UlCi5NOUDfDHAdmGwE_-30" edge="1">
          <mxGeometry relative="1" as="geometry" />
        </mxCell>
        <mxCell id="2UlCi5NOUDfDHAdmGwE_-28" value="Load accumulator&lt;div&gt;&amp;nbsp;&lt;span class=&quot;hljs-keyword&quot;&gt;with&lt;/span&gt; &lt;span class=&quot;hljs-keyword&quot;&gt;value&lt;/span&gt; &lt;b&gt;N&lt;/b&gt;&lt;br&gt;&lt;/div&gt;" style="rounded=1;whiteSpace=wrap;html=1;absoluteArcSize=1;arcSize=6;strokeWidth=0.5;fontFamily=Noto Sans;fillColor=#dae8fc;strokeColor=#6c8ebf;fontSource=https%3A%2F%2Ffonts.googleapis.com%2Fcss%3Ffamily%3DNoto%2BSans;" parent="1" vertex="1">
          <mxGeometry x="933.9" y="625" width="167.19" height="40" as="geometry" />
        </mxCell>
        <mxCell id="2UlCi5NOUDfDHAdmGwE_-29" value="&lt;div&gt;&lt;span data-lucid-content=&quot;{&amp;quot;t&amp;quot;:&amp;quot;Store L in memory location 0x90&amp;quot;,&amp;quot;m&amp;quot;:[]}&quot; data-lucid-type=&quot;application/vnd.lucid.text&quot;&gt;Store &lt;b&gt;M&lt;/b&gt; in&amp;nbsp;&lt;/span&gt;&lt;/div&gt;&lt;div&gt;&lt;span data-lucid-content=&quot;{&amp;quot;t&amp;quot;:&amp;quot;Store L in memory location 0x90&amp;quot;,&amp;quot;m&amp;quot;:[]}&quot; data-lucid-type=&quot;application/vnd.lucid.text&quot;&gt;memory location &lt;b&gt;0x91&lt;/b&gt;&lt;/span&gt;&lt;br&gt;&lt;/div&gt;" style="rounded=1;whiteSpace=wrap;html=1;absoluteArcSize=1;arcSize=6;strokeWidth=0.5;fontFamily=Noto Sans;fillColor=#dae8fc;strokeColor=#6c8ebf;fontSource=https%3A%2F%2Ffonts.googleapis.com%2Fcss%3Ffamily%3DNoto%2BSans;" parent="1" vertex="1">
          <mxGeometry x="723.9" y="695" width="167.19" height="40" as="geometry" />
        </mxCell>
        <mxCell id="2UlCi5NOUDfDHAdmGwE_-30" value="&lt;div&gt;&lt;span data-lucid-content=&quot;{&amp;quot;t&amp;quot;:&amp;quot;Store L in memory location 0x90&amp;quot;,&amp;quot;m&amp;quot;:[]}&quot; data-lucid-type=&quot;application/vnd.lucid.text&quot;&gt;Store &lt;b&gt;N&lt;/b&gt; in&amp;nbsp;&lt;/span&gt;&lt;/div&gt;&lt;div&gt;&lt;span data-lucid-content=&quot;{&amp;quot;t&amp;quot;:&amp;quot;Store L in memory location 0x90&amp;quot;,&amp;quot;m&amp;quot;:[]}&quot; data-lucid-type=&quot;application/vnd.lucid.text&quot;&gt;memory location &lt;b&gt;0x92&lt;/b&gt;&lt;/span&gt;&lt;br&gt;&lt;/div&gt;" style="rounded=1;whiteSpace=wrap;html=1;absoluteArcSize=1;arcSize=6;strokeWidth=0.5;fontFamily=Noto Sans;fillColor=#dae8fc;strokeColor=#6c8ebf;fontSource=https%3A%2F%2Ffonts.googleapis.com%2Fcss%3Ffamily%3DNoto%2BSans;" parent="1" vertex="1">
          <mxGeometry x="933.9" y="695" width="167.19" height="40" as="geometry" />
        </mxCell>
        <mxCell id="2UlCi5NOUDfDHAdmGwE_-31" value="END" style="strokeWidth=0.5;html=1;shape=mxgraph.flowchart.start_1;whiteSpace=wrap;fontFamily=Noto Sans;fillColor=#fad9d5;strokeColor=#ae4132;fontSource=https%3A%2F%2Ffonts.googleapis.com%2Fcss%3Ffamily%3DNoto%2BSans;fontStyle=1" parent="1" vertex="1">
          <mxGeometry x="757.5" y="765" width="100" height="40" as="geometry" />
        </mxCell>
        <mxCell id="2UlCi5NOUDfDHAdmGwE_-38" style="edgeStyle=orthogonalEdgeStyle;rounded=0;orthogonalLoop=1;jettySize=auto;html=1;exitX=0.5;exitY=1;exitDx=0;exitDy=0;entryX=0.5;entryY=0;entryDx=0;entryDy=0;entryPerimeter=0;fontFamily=Noto Sans;fontSource=https%3A%2F%2Ffonts.googleapis.com%2Fcss%3Ffamily%3DNoto%2BSans;" parent="1" source="2UlCi5NOUDfDHAdmGwE_-21" target="2UlCi5NOUDfDHAdmGwE_-11" edge="1">
          <mxGeometry relative="1" as="geometry" />
        </mxCell>
        <mxCell id="2UlCi5NOUDfDHAdmGwE_-39" style="edgeStyle=orthogonalEdgeStyle;rounded=0;orthogonalLoop=1;jettySize=auto;html=1;exitX=1;exitY=0.5;exitDx=0;exitDy=0;exitPerimeter=0;entryX=0;entryY=0.5;entryDx=0;entryDy=0;entryPerimeter=0;fontFamily=Noto Sans;fontSource=https%3A%2F%2Ffonts.googleapis.com%2Fcss%3Ffamily%3DNoto%2BSans;" parent="1" source="2UlCi5NOUDfDHAdmGwE_-11" target="2UlCi5NOUDfDHAdmGwE_-23" edge="1">
          <mxGeometry relative="1" as="geometry" />
        </mxCell>
        <mxCell id="2UlCi5NOUDfDHAdmGwE_-41" value="NO" style="edgeLabel;html=1;align=center;verticalAlign=middle;resizable=0;points=[];fontFamily=Noto Sans;fontSource=https%3A%2F%2Ffonts.googleapis.com%2Fcss%3Ffamily%3DNoto%2BSans;" parent="2UlCi5NOUDfDHAdmGwE_-39" vertex="1" connectable="0">
          <mxGeometry x="0.0335" y="-4" relative="1" as="geometry">
            <mxPoint y="-4" as="offset" />
          </mxGeometry>
        </mxCell>
        <mxCell id="2UlCi5NOUDfDHAdmGwE_-40" style="edgeStyle=orthogonalEdgeStyle;rounded=0;orthogonalLoop=1;jettySize=auto;html=1;exitX=1;exitY=0.5;exitDx=0;exitDy=0;exitPerimeter=0;entryX=0;entryY=0.5;entryDx=0;entryDy=0;entryPerimeter=0;fontFamily=Noto Sans;fontSource=https%3A%2F%2Ffonts.googleapis.com%2Fcss%3Ffamily%3DNoto%2BSans;" parent="1" source="2UlCi5NOUDfDHAdmGwE_-23" target="2UlCi5NOUDfDHAdmGwE_-24" edge="1">
          <mxGeometry relative="1" as="geometry" />
        </mxCell>
        <mxCell id="2UlCi5NOUDfDHAdmGwE_-42" value="NO" style="edgeLabel;html=1;align=center;verticalAlign=middle;resizable=0;points=[];fontFamily=Noto Sans;fontSource=https%3A%2F%2Ffonts.googleapis.com%2Fcss%3Ffamily%3DNoto%2BSans;" parent="2UlCi5NOUDfDHAdmGwE_-40" vertex="1" connectable="0">
          <mxGeometry x="-0.1282" y="-3" relative="1" as="geometry">
            <mxPoint y="-3" as="offset" />
          </mxGeometry>
        </mxCell>
        <mxCell id="2UlCi5NOUDfDHAdmGwE_-52" style="edgeStyle=orthogonalEdgeStyle;rounded=0;orthogonalLoop=1;jettySize=auto;html=1;exitX=0.5;exitY=1;exitDx=0;exitDy=0;entryX=0;entryY=0.5;entryDx=0;entryDy=0;entryPerimeter=0;fontFamily=Noto Sans;fontSource=https%3A%2F%2Ffonts.googleapis.com%2Fcss%3Ffamily%3DNoto%2BSans;" parent="1" source="2UlCi5NOUDfDHAdmGwE_-26" target="2UlCi5NOUDfDHAdmGwE_-31" edge="1">
          <mxGeometry relative="1" as="geometry" />
        </mxCell>
        <mxCell id="2UlCi5NOUDfDHAdmGwE_-53" style="edgeStyle=orthogonalEdgeStyle;rounded=0;orthogonalLoop=1;jettySize=auto;html=1;exitX=0.5;exitY=1;exitDx=0;exitDy=0;entryX=1;entryY=0.5;entryDx=0;entryDy=0;entryPerimeter=0;fontFamily=Noto Sans;fontSource=https%3A%2F%2Ffonts.googleapis.com%2Fcss%3Ffamily%3DNoto%2BSans;" parent="1" source="2UlCi5NOUDfDHAdmGwE_-30" target="2UlCi5NOUDfDHAdmGwE_-31" edge="1">
          <mxGeometry relative="1" as="geometry" />
        </mxCell>
        <mxCell id="2UlCi5NOUDfDHAdmGwE_-54" style="edgeStyle=orthogonalEdgeStyle;rounded=0;orthogonalLoop=1;jettySize=auto;html=1;exitX=0.5;exitY=1;exitDx=0;exitDy=0;entryX=0.5;entryY=0;entryDx=0;entryDy=0;entryPerimeter=0;fontFamily=Noto Sans;fontSource=https%3A%2F%2Ffonts.googleapis.com%2Fcss%3Ffamily%3DNoto%2BSans;" parent="1" source="2UlCi5NOUDfDHAdmGwE_-29" target="2UlCi5NOUDfDHAdmGwE_-31" edge="1">
          <mxGeometry relative="1" as="geometry" />
        </mxCell>
      </root>
    </mxGraphModel>
  </diagram>
</mxfile>
